<svg width="150" height="49" viewBox="0 0 150 49" fill="none" xmlns="http://www.w3.org/2000/svg">
<path d="M27.41 0L26.3136 4.30439H18.1109L12.7101 25.9887H2.80191L8.2027 4.30439H0L1.0964 0H27.41Z" fill="#FF6500"/>
<path d="M58.475 0L53.8864 18.2733C53.1825 21.0617 52.1673 23.0515 50.8408 24.2426C49.5414 25.4067 47.6599 25.9887 45.1964 25.9887H31.1462C27.6269 25.9887 25.8672 24.3915 25.8672 21.1971C25.8672 20.3308 26.0026 19.3562 26.2733 18.2733L30.862 0H40.7702L35.9379 19.3291C35.8567 19.654 35.8161 19.9518 35.8161 20.2225C35.8161 21.1971 36.4252 21.6844 37.6434 21.6844H46.4146C47.308 21.6844 47.9441 21.549 48.3231 21.2783C48.7292 21.0076 49.0405 20.4391 49.2571 19.5728L54.1706 0H58.475Z" fill="#FF6500"/>
<path d="M92.7899 0L76.2626 25.9887H65.1768L62.2125 0H72.7704L75.0444 20.4661L88.0388 0H92.7899Z" fill="#FF6500"/>
<path d="M120.426 0L119.33 4.30439H105.645C104.508 4.30439 103.845 4.65632 103.655 5.36018L103.209 7.02508C103.181 7.16044 103.168 7.26873 103.168 7.34994C103.168 7.81016 103.682 8.04027 104.711 8.04027H112.102C115.621 8.04027 117.381 9.21789 117.381 11.5731C117.381 12.0333 117.313 12.5206 117.177 13.035L115.472 19.857C114.443 23.9448 111.98 25.9887 108.081 25.9887H88.9147L89.9705 21.6844H103.858C104.887 21.6844 105.496 21.3054 105.686 20.5474L106.132 18.7606C106.186 18.5982 106.213 18.4493 106.213 18.3139C106.213 17.8537 105.726 17.6236 104.752 17.6236H96.2646C93.4492 17.6236 92.0415 16.5949 92.0415 14.5375C92.0415 13.8877 92.1498 13.1027 92.3663 12.1822L93.9094 5.96929C94.3426 4.23671 95.1141 2.84252 96.224 1.78673C97.4423 0.595576 98.9312 0 100.691 0H120.426Z" fill="#FF6500"/>
<path d="M150 25.9887H139.483L138.264 19.0043H126.854L121.697 25.9887H116.905L135.828 0H145.736L150 25.9887ZM137.615 14.6999L136.112 5.92868L129.94 14.6999H137.615Z" fill="#FF6500"/>
<path d="M0 34.299V33.3678H4.38727V34.299H2.75183V38.7097H1.63545V34.299H0Z" fill="black"/>
<path d="M4.67289 38.7097V34.7033H5.75014V35.4023H5.79188C5.86491 35.1536 5.98751 34.9658 6.15966 34.8389C6.33181 34.7102 6.53005 34.6459 6.75437 34.6459C6.81001 34.6459 6.87 34.6494 6.93434 34.6563C6.99868 34.6633 7.0552 34.6728 7.10389 34.685V35.671C7.05172 35.6553 6.97956 35.6414 6.88739 35.6292C6.79523 35.6171 6.71089 35.611 6.63438 35.611C6.47092 35.611 6.32485 35.6466 6.19618 35.7179C6.06923 35.7875 5.96838 35.8849 5.89361 36.0101C5.82057 36.1353 5.78405 36.2796 5.78405 36.443V38.7097H4.67289Z" fill="black"/>
<path d="M8.70608 38.7854C8.45046 38.7854 8.22266 38.741 8.02268 38.6523C7.82271 38.5619 7.66447 38.4289 7.54796 38.2533C7.43319 38.0759 7.37581 37.855 7.37581 37.5907C7.37581 37.3681 7.41667 37.1812 7.4984 37.0299C7.58013 36.8786 7.69142 36.7569 7.83227 36.6648C7.97313 36.5726 8.13311 36.503 8.31221 36.4561C8.49306 36.4091 8.6826 36.3761 8.88084 36.357C9.11385 36.3326 9.30165 36.31 9.44424 36.2892C9.58683 36.2665 9.6903 36.2335 9.75464 36.19C9.81898 36.1466 9.85115 36.0822 9.85115 35.997V35.9814C9.85115 35.8162 9.79898 35.6884 9.69465 35.5979C9.59205 35.5075 9.44598 35.4623 9.25644 35.4623C9.05647 35.4623 8.89736 35.5066 8.77911 35.5953C8.66086 35.6823 8.58261 35.7918 8.54436 35.924L7.51666 35.8405C7.56883 35.5971 7.67142 35.3867 7.82445 35.2093C7.97747 35.0302 8.17484 34.8928 8.41655 34.7972C8.66 34.6998 8.9417 34.6511 9.26166 34.6511C9.48424 34.6511 9.69726 34.6772 9.90071 34.7293C10.1059 34.7815 10.2876 34.8624 10.4459 34.9719C10.6058 35.0815 10.7319 35.2223 10.8241 35.3945C10.9162 35.5649 10.9623 35.7692 10.9623 36.0074V38.7097H9.90853V38.1541H9.87723C9.81289 38.2793 9.72682 38.3898 9.61901 38.4854C9.51119 38.5793 9.38164 38.6532 9.23036 38.7071C9.07907 38.7593 8.90431 38.7854 8.70608 38.7854ZM9.0243 38.0185C9.18775 38.0185 9.33208 37.9863 9.45729 37.922C9.58249 37.8559 9.68074 37.7672 9.75203 37.6559C9.82333 37.5446 9.85897 37.4186 9.85897 37.2777V36.8526C9.8242 36.8752 9.77638 36.896 9.71551 36.9152C9.65639 36.9325 9.58944 36.9491 9.51467 36.9647C9.4399 36.9786 9.36512 36.9917 9.29035 37.0038C9.21558 37.0143 9.14776 37.0238 9.0869 37.0325C8.95648 37.0517 8.84258 37.0821 8.7452 37.1238C8.64782 37.1656 8.57218 37.2221 8.51827 37.2934C8.46437 37.3629 8.43742 37.4499 8.43742 37.5542C8.43742 37.7055 8.49219 37.8211 8.60174 37.9011C8.71303 37.9794 8.85388 38.0185 9.0243 38.0185Z" fill="black"/>
<path d="M12.9355 36.3935V38.7097H11.8244V34.7033H12.8834V35.4101H12.9303C13.019 35.1771 13.1677 34.9928 13.3764 34.8572C13.585 34.7198 13.838 34.6511 14.1354 34.6511C14.4136 34.6511 14.6562 34.712 14.8631 34.8337C15.0701 34.9554 15.2309 35.1293 15.3457 35.3554C15.4604 35.5797 15.5178 35.8475 15.5178 36.1587V38.7097H14.4067V36.357C14.4084 36.1118 14.3458 35.9205 14.2189 35.7831C14.0919 35.644 13.9172 35.5745 13.6946 35.5745C13.545 35.5745 13.4129 35.6066 13.2981 35.671C13.1851 35.7353 13.0964 35.8292 13.0321 35.9527C12.9695 36.0744 12.9373 36.2213 12.9355 36.3935Z" fill="black"/>
<path d="M19.7271 35.8457L18.7098 35.9083C18.6924 35.8214 18.655 35.7431 18.5977 35.6736C18.5403 35.6023 18.4646 35.5458 18.3707 35.504C18.2786 35.4606 18.1681 35.4388 18.0395 35.4388C17.8673 35.4388 17.7221 35.4753 17.6039 35.5484C17.4856 35.6197 17.4265 35.7153 17.4265 35.8353C17.4265 35.9309 17.4648 36.0118 17.5413 36.0779C17.6178 36.144 17.7491 36.197 17.9351 36.237L18.6603 36.3831C19.0498 36.463 19.3402 36.5917 19.5315 36.7691C19.7227 36.9465 19.8184 37.1795 19.8184 37.4681C19.8184 37.7307 19.741 37.9611 19.5862 38.1593C19.4332 38.3576 19.2228 38.5123 18.955 38.6236C18.6889 38.7332 18.382 38.788 18.0342 38.788C17.5039 38.788 17.0813 38.6775 16.7666 38.4567C16.4536 38.2341 16.2701 37.9316 16.2162 37.549L17.3091 37.4916C17.3422 37.6533 17.4222 37.7768 17.5491 37.862C17.676 37.9455 17.8386 37.9872 18.0369 37.9872C18.2316 37.9872 18.3881 37.9498 18.5064 37.875C18.6263 37.7985 18.6872 37.7003 18.6889 37.5803C18.6872 37.4794 18.6446 37.3968 18.5611 37.3325C18.4777 37.2664 18.349 37.216 18.1751 37.1812L17.4813 37.043C17.09 36.9647 16.7988 36.8291 16.6075 36.6361C16.4179 36.443 16.3232 36.197 16.3232 35.8979C16.3232 35.6405 16.3927 35.4188 16.5318 35.2328C16.6727 35.0467 16.87 34.9032 17.1239 34.8024C17.3795 34.7015 17.6786 34.6511 18.0212 34.6511C18.5272 34.6511 18.9254 34.758 19.2158 34.9719C19.508 35.1858 19.6784 35.4771 19.7271 35.8457Z" fill="black"/>
<path d="M20.5181 40.2121V34.7033H21.6136V35.3762H21.6631C21.7118 35.2684 21.7823 35.1589 21.8744 35.0476C21.9683 34.9345 22.09 34.8406 22.2396 34.7659C22.3909 34.6894 22.5787 34.6511 22.803 34.6511C23.0951 34.6511 23.3647 34.7276 23.6116 34.8806C23.8585 35.0319 24.0559 35.2606 24.2037 35.5666C24.3515 35.8709 24.4254 36.2526 24.4254 36.7117C24.4254 37.1586 24.3532 37.5359 24.2089 37.8437C24.0663 38.1498 23.8716 38.3819 23.6246 38.5402C23.3794 38.6967 23.1047 38.7749 22.8004 38.7749C22.5848 38.7749 22.4013 38.7393 22.25 38.668C22.1005 38.5967 21.9779 38.5071 21.8822 38.3993C21.7866 38.2898 21.7136 38.1793 21.6631 38.0681H21.6292V40.2121H20.5181ZM21.6058 36.7065C21.6058 36.9447 21.6388 37.1525 21.7049 37.3299C21.771 37.5073 21.8666 37.6455 21.9918 37.7446C22.117 37.842 22.2691 37.8907 22.4483 37.8907C22.6291 37.8907 22.7821 37.8411 22.9073 37.742C23.0325 37.6412 23.1273 37.502 23.1916 37.3247C23.2577 37.1456 23.2908 36.9395 23.2908 36.7065C23.2908 36.4752 23.2586 36.2718 23.1943 36.0961C23.1299 35.9205 23.0351 35.7831 22.9099 35.684C22.7847 35.5849 22.6308 35.5353 22.4483 35.5353C22.2674 35.5353 22.1144 35.5832 21.9892 35.6788C21.8657 35.7744 21.771 35.9101 21.7049 36.0857C21.6388 36.2613 21.6058 36.4683 21.6058 36.7065Z" fill="black"/>
<path d="M26.9764 38.788C26.5712 38.788 26.2208 38.7019 25.9252 38.5297C25.6313 38.3558 25.4044 38.1141 25.2444 37.8046C25.0844 37.4933 25.0045 37.1325 25.0045 36.7221C25.0045 36.3083 25.0844 35.9466 25.2444 35.6371C25.4044 35.3258 25.6313 35.0841 25.9252 34.9119C26.2208 34.738 26.5712 34.6511 26.9764 34.6511C27.3815 34.6511 27.7311 34.738 28.0249 34.9119C28.3206 35.0841 28.5484 35.3258 28.7083 35.6371C28.8683 35.9466 28.9483 36.3083 28.9483 36.7221C28.9483 37.1325 28.8683 37.4933 28.7083 37.8046C28.5484 38.1141 28.3206 38.3558 28.0249 38.5297C27.7311 38.7019 27.3815 38.788 26.9764 38.788ZM26.9816 37.9272C27.1659 37.9272 27.3198 37.875 27.4433 37.7707C27.5667 37.6646 27.6598 37.5203 27.7224 37.3377C27.7867 37.1551 27.8189 36.9473 27.8189 36.7143C27.8189 36.4813 27.7867 36.2735 27.7224 36.0909C27.6598 35.9083 27.5667 35.764 27.4433 35.6579C27.3198 35.5519 27.1659 35.4988 26.9816 35.4988C26.7955 35.4988 26.639 35.5519 26.5121 35.6579C26.3869 35.764 26.2921 35.9083 26.2278 36.0909C26.1652 36.2735 26.1339 36.4813 26.1339 36.7143C26.1339 36.9473 26.1652 37.1551 26.2278 37.3377C26.2921 37.5203 26.3869 37.6646 26.5121 37.7707C26.639 37.875 26.7955 37.9272 26.9816 37.9272Z" fill="black"/>
<path d="M29.6708 38.7097V34.7033H30.7481V35.4023H30.7898C30.8628 35.1536 30.9854 34.9658 31.1576 34.8389C31.3297 34.7102 31.528 34.6459 31.7523 34.6459C31.8079 34.6459 31.8679 34.6494 31.9323 34.6563C31.9966 34.6633 32.0531 34.6728 32.1018 34.685V35.671C32.0497 35.6553 31.9775 35.6414 31.8853 35.6292C31.7932 35.6171 31.7088 35.611 31.6323 35.611C31.4689 35.611 31.3228 35.6466 31.1941 35.7179C31.0672 35.7875 30.9663 35.8849 30.8915 36.0101C30.8185 36.1353 30.782 36.2796 30.782 36.443V38.7097H29.6708Z" fill="black"/>
<path d="M35.0082 34.7033V35.5379H32.5955V34.7033H35.0082ZM33.1432 33.7434H34.2544V37.4786C34.2544 37.5812 34.27 37.6612 34.3013 37.7185C34.3326 37.7742 34.3761 37.8133 34.4317 37.8359C34.4891 37.8585 34.5552 37.8698 34.63 37.8698C34.6821 37.8698 34.7343 37.8655 34.7865 37.8568C34.8387 37.8463 34.8786 37.8385 34.9065 37.8333L35.0812 38.6602C35.0256 38.6775 34.9473 38.6975 34.8465 38.7201C34.7456 38.7445 34.623 38.7593 34.4787 38.7645C34.2109 38.7749 33.9762 38.7393 33.7744 38.6575C33.5745 38.5758 33.4188 38.4489 33.3075 38.2767C33.1963 38.1046 33.1415 37.8872 33.1432 37.6246V33.7434Z" fill="black"/>
<path d="M35.732 38.7097V34.7033H36.8432V38.7097H35.732ZM36.2902 34.1868C36.125 34.1868 35.9833 34.132 35.865 34.0225C35.7485 33.9112 35.6903 33.7782 35.6903 33.6234C35.6903 33.4704 35.7485 33.3391 35.865 33.2295C35.9833 33.1182 36.125 33.0626 36.2902 33.0626C36.4554 33.0626 36.5963 33.1182 36.7128 33.2295C36.831 33.3391 36.8901 33.4704 36.8901 33.6234C36.8901 33.7782 36.831 33.9112 36.7128 34.0225C36.5963 34.132 36.4554 34.1868 36.2902 34.1868Z" fill="black"/>
<path d="M41.0668 35.8457L40.0495 35.9083C40.0321 35.8214 39.9947 35.7431 39.9374 35.6736C39.88 35.6023 39.8043 35.5458 39.7104 35.504C39.6183 35.4606 39.5078 35.4388 39.3792 35.4388C39.207 35.4388 39.0618 35.4753 38.9436 35.5484C38.8253 35.6197 38.7662 35.7153 38.7662 35.8353C38.7662 35.9309 38.8045 36.0118 38.881 36.0779C38.9575 36.144 39.0888 36.197 39.2748 36.237L40 36.3831C40.3895 36.463 40.6799 36.5917 40.8712 36.7691C41.0624 36.9465 41.1581 37.1795 41.1581 37.4681C41.1581 37.7307 41.0807 37.9611 40.9259 38.1593C40.7729 38.3576 40.5625 38.5123 40.2947 38.6236C40.0286 38.7332 39.7217 38.788 39.3739 38.788C38.8436 38.788 38.421 38.6775 38.1063 38.4567C37.7933 38.2341 37.6098 37.9316 37.5559 37.549L38.6488 37.4916C38.6819 37.6533 38.7619 37.7768 38.8888 37.862C39.0157 37.9455 39.1783 37.9872 39.3766 37.9872C39.5713 37.9872 39.7278 37.9498 39.8461 37.875C39.966 37.7985 40.0269 37.7003 40.0287 37.5803C40.0269 37.4794 39.9843 37.3968 39.9008 37.3325C39.8174 37.2664 39.6887 37.216 39.5148 37.1812L38.821 37.043C38.4297 36.9647 38.1385 36.8291 37.9472 36.6361C37.7576 36.443 37.6629 36.197 37.6629 35.8979C37.6629 35.6405 37.7324 35.4188 37.8715 35.2328C38.0124 35.0467 38.2098 34.9032 38.4636 34.8024C38.7192 34.7015 39.0183 34.6511 39.3609 34.6511C39.8669 34.6511 40.2651 34.758 40.5555 34.9719C40.8477 35.1858 41.0181 35.4771 41.0668 35.8457Z" fill="black"/>
<path d="M43.9888 34.7033V35.5379H41.5761V34.7033H43.9888ZM42.1238 33.7434H43.235V37.4786C43.235 37.5812 43.2506 37.6612 43.2819 37.7185C43.3132 37.7742 43.3567 37.8133 43.4124 37.8359C43.4697 37.8585 43.5358 37.8698 43.6106 37.8698C43.6628 37.8698 43.7149 37.8655 43.7671 37.8568C43.8193 37.8463 43.8593 37.8385 43.8871 37.8333L44.0618 38.6602C44.0062 38.6775 43.9279 38.6975 43.8271 38.7201C43.7262 38.7445 43.6036 38.7593 43.4593 38.7645C43.1915 38.7749 42.9568 38.7393 42.755 38.6575C42.5551 38.5758 42.3994 38.4489 42.2881 38.2767C42.1769 38.1046 42.1221 37.8872 42.1238 37.6246V33.7434Z" fill="black"/>
<path d="M45.8551 38.7854C45.5995 38.7854 45.3717 38.741 45.1717 38.6523C44.9717 38.5619 44.8135 38.4289 44.697 38.2533C44.5822 38.0759 44.5248 37.855 44.5248 37.5907C44.5248 37.3681 44.5657 37.1812 44.6474 37.0299C44.7291 36.8786 44.8404 36.7569 44.9813 36.6648C45.1221 36.5726 45.2821 36.503 45.4612 36.4561C45.6421 36.4091 45.8316 36.3761 46.0299 36.357C46.2629 36.3326 46.4507 36.31 46.5933 36.2892C46.7358 36.2665 46.8393 36.2335 46.9037 36.19C46.968 36.1466 47.0002 36.0822 47.0002 35.997V35.9814C47.0002 35.8162 46.948 35.6884 46.8437 35.5979C46.7411 35.5075 46.595 35.4623 46.4055 35.4623C46.2055 35.4623 46.0464 35.5066 45.9281 35.5953C45.8099 35.6823 45.7316 35.7918 45.6934 35.924L44.6657 35.8405C44.7178 35.5971 44.8204 35.3867 44.9735 35.2093C45.1265 35.0302 45.3239 34.8928 45.5656 34.7972C45.809 34.6998 46.0907 34.6511 46.4107 34.6511C46.6333 34.6511 46.8463 34.6772 47.0497 34.7293C47.2549 34.7815 47.4366 34.8624 47.5949 34.9719C47.7549 35.0815 47.8809 35.2223 47.9731 35.3945C48.0652 35.5649 48.1113 35.7692 48.1113 36.0074V38.7097H47.0575V38.1541H47.0262C46.9619 38.2793 46.8758 38.3898 46.768 38.4854C46.6602 38.5793 46.5307 38.6532 46.3794 38.7071C46.2281 38.7593 46.0533 38.7854 45.8551 38.7854ZM46.1733 38.0185C46.3368 38.0185 46.4811 37.9863 46.6063 37.922C46.7315 37.8559 46.8297 37.7672 46.901 37.6559C46.9723 37.5446 47.008 37.4186 47.008 37.2777V36.8526C46.9732 36.8752 46.9254 36.896 46.8645 36.9152C46.8054 36.9325 46.7385 36.9491 46.6637 36.9647C46.5889 36.9786 46.5141 36.9917 46.4394 37.0038C46.3646 37.0143 46.2968 37.0238 46.2359 37.0325C46.1055 37.0517 45.9916 37.0821 45.8942 37.1238C45.7968 37.1656 45.7212 37.2221 45.6673 37.2934C45.6134 37.3629 45.5864 37.4499 45.5864 37.5542C45.5864 37.7055 45.6412 37.8211 45.7508 37.9011C45.862 37.9794 46.0029 38.0185 46.1733 38.0185Z" fill="black"/>
<path d="M52.3069 35.8457L51.2896 35.9083C51.2722 35.8214 51.2348 35.7431 51.1775 35.6736C51.1201 35.6023 51.0444 35.5458 50.9505 35.504C50.8584 35.4606 50.7479 35.4388 50.6193 35.4388C50.4471 35.4388 50.3019 35.4753 50.1837 35.5484C50.0654 35.6197 50.0063 35.7153 50.0063 35.8353C50.0063 35.9309 50.0446 36.0118 50.1211 36.0779C50.1976 36.144 50.3289 36.197 50.5149 36.237L51.2401 36.3831C51.6296 36.463 51.92 36.5917 52.1113 36.7691C52.3025 36.9465 52.3982 37.1795 52.3982 37.4681C52.3982 37.7307 52.3208 37.9611 52.166 38.1593C52.013 38.3576 51.8026 38.5123 51.5348 38.6236C51.2688 38.7332 50.9618 38.788 50.6141 38.788C50.0837 38.788 49.6611 38.6775 49.3464 38.4567C49.0334 38.2341 48.8499 37.9316 48.796 37.549L49.8889 37.4916C49.922 37.6533 50.002 37.7768 50.1289 37.862C50.2558 37.9455 50.4184 37.9872 50.6167 37.9872C50.8114 37.9872 50.9679 37.9498 51.0862 37.875C51.2062 37.7985 51.267 37.7003 51.2688 37.5803C51.267 37.4794 51.2244 37.3968 51.1409 37.3325C51.0575 37.2664 50.9288 37.216 50.7549 37.1812L50.0611 37.043C49.6698 36.9647 49.3786 36.8291 49.1873 36.6361C48.9977 36.443 48.903 36.197 48.903 35.8979C48.903 35.6405 48.9725 35.4188 49.1116 35.2328C49.2525 35.0467 49.4499 34.9032 49.7037 34.8024C49.9594 34.7015 50.2584 34.6511 50.601 34.6511C51.107 34.6511 51.5052 34.758 51.7956 34.9719C52.0878 35.1858 52.2582 35.4771 52.3069 35.8457Z" fill="black"/>
<path d="M58.1183 33.3678H59.2477V36.8369C59.2477 37.2264 59.1547 37.5673 58.9687 37.8594C58.7843 38.1515 58.5261 38.3793 58.194 38.5428C57.8618 38.7045 57.4749 38.7854 57.0332 38.7854C56.5898 38.7854 56.202 38.7045 55.8699 38.5428C55.5378 38.3793 55.2796 38.1515 55.0952 37.8594C54.9109 37.5673 54.8187 37.2264 54.8187 36.8369V33.3678H55.9482V36.7404C55.9482 36.9439 55.9925 37.1247 56.0812 37.2829C56.1716 37.4412 56.2986 37.5655 56.462 37.6559C56.6255 37.7464 56.8159 37.7916 57.0332 37.7916C57.2523 37.7916 57.4428 37.7464 57.6045 37.6559C57.7679 37.5655 57.894 37.4412 57.9827 37.2829C58.0731 37.1247 58.1183 36.9439 58.1183 36.7404V33.3678Z" fill="black"/>
<path d="M61.2673 36.3935V38.7097H60.1561V34.7033H61.2151V35.4101H61.2621C61.3507 35.1771 61.4994 34.9928 61.7081 34.8572C61.9168 34.7198 62.1698 34.6511 62.4671 34.6511C62.7453 34.6511 62.9879 34.712 63.1949 34.8337C63.4018 34.9554 63.5626 35.1293 63.6774 35.3554C63.7922 35.5797 63.8496 35.8475 63.8496 36.1587V38.7097H62.7384V36.357C62.7401 36.1118 62.6775 35.9205 62.5506 35.7831C62.4237 35.644 62.2489 35.5745 62.0263 35.5745C61.8768 35.5745 61.7446 35.6066 61.6298 35.671C61.5168 35.7353 61.4281 35.8292 61.3638 35.9527C61.3012 36.0744 61.269 36.2213 61.2673 36.3935Z" fill="black"/>
<path d="M64.7253 38.7097V34.7033H65.8365V38.7097H64.7253ZM65.2835 34.1868C65.1183 34.1868 64.9766 34.132 64.8583 34.0225C64.7418 33.9112 64.6836 33.7782 64.6836 33.6234C64.6836 33.4704 64.7418 33.3391 64.8583 33.2295C64.9766 33.1182 65.1183 33.0626 65.2835 33.0626C65.4487 33.0626 65.5896 33.1182 65.7061 33.2295C65.8243 33.3391 65.8834 33.4704 65.8834 33.6234C65.8834 33.7782 65.8243 33.9112 65.7061 34.0225C65.5896 34.132 65.4487 34.1868 65.2835 34.1868Z" fill="black"/>
<path d="M68.2029 38.7749C67.8986 38.7749 67.623 38.6967 67.3761 38.5402C67.1309 38.3819 66.9361 38.1498 66.7918 37.8437C66.6492 37.5359 66.5779 37.1586 66.5779 36.7117C66.5779 36.2526 66.6518 35.8709 66.7996 35.5666C66.9474 35.2606 67.1439 35.0319 67.3891 34.8806C67.636 34.7276 67.9064 34.6511 68.2003 34.6511C68.4246 34.6511 68.6116 34.6894 68.7611 34.7659C68.9124 34.8406 69.0341 34.9345 69.1263 35.0476C69.2202 35.1589 69.2915 35.2684 69.3402 35.3762H69.3741V33.3678H70.4826V38.7097H69.3871V38.0681H69.3402C69.288 38.1793 69.2141 38.2898 69.1185 38.3993C69.0246 38.5071 68.902 38.5967 68.7507 38.668C68.6011 38.7393 68.4185 38.7749 68.2029 38.7749ZM68.5551 37.8907C68.7342 37.8907 68.8854 37.842 69.0089 37.7446C69.1341 37.6455 69.2298 37.5073 69.2958 37.3299C69.3636 37.1525 69.3976 36.9447 69.3976 36.7065C69.3976 36.4683 69.3645 36.2613 69.2984 36.0857C69.2324 35.9101 69.1367 35.7744 69.0115 35.6788C68.8863 35.5832 68.7342 35.5353 68.5551 35.5353C68.3725 35.5353 68.2186 35.5849 68.0934 35.684C67.9682 35.7831 67.8734 35.9205 67.8091 36.0961C67.7447 36.2718 67.7126 36.4752 67.7126 36.7065C67.7126 36.9395 67.7447 37.1456 67.8091 37.3247C67.8751 37.502 67.9699 37.6412 68.0934 37.742C68.2186 37.8411 68.3725 37.8907 68.5551 37.8907Z" fill="black"/>
<path d="M73.2064 38.788C72.8013 38.788 72.4509 38.7019 72.1553 38.5297C71.8614 38.3558 71.6344 38.1141 71.4745 37.8046C71.3145 37.4933 71.2345 37.1325 71.2345 36.7221C71.2345 36.3083 71.3145 35.9466 71.4745 35.6371C71.6344 35.3258 71.8614 35.0841 72.1553 34.9119C72.4509 34.738 72.8013 34.6511 73.2064 34.6511C73.6116 34.6511 73.9611 34.738 74.255 34.9119C74.5506 35.0841 74.7784 35.3258 74.9384 35.6371C75.0984 35.9466 75.1783 36.3083 75.1783 36.7221C75.1783 37.1325 75.0984 37.4933 74.9384 37.8046C74.7784 38.1141 74.5506 38.3558 74.255 38.5297C73.9611 38.7019 73.6116 38.788 73.2064 38.788ZM73.2116 37.9272C73.396 37.9272 73.5499 37.875 73.6733 37.7707C73.7968 37.6646 73.8898 37.5203 73.9524 37.3377C74.0168 37.1551 74.0489 36.9473 74.0489 36.7143C74.0489 36.4813 74.0168 36.2735 73.9524 36.0909C73.8898 35.9083 73.7968 35.764 73.6733 35.6579C73.5499 35.5519 73.396 35.4988 73.2116 35.4988C73.0256 35.4988 72.8691 35.5519 72.7421 35.6579C72.6169 35.764 72.5222 35.9083 72.4578 36.0909C72.3952 36.2735 72.3639 36.4813 72.3639 36.7143C72.3639 36.9473 72.3952 37.1551 72.4578 37.3377C72.5222 37.5203 72.6169 37.6646 72.7421 37.7707C72.8691 37.875 73.0256 37.9272 73.2116 37.9272Z" fill="black"/>
<path d="M79.2344 35.8457L78.2171 35.9083C78.1997 35.8214 78.1623 35.7431 78.1049 35.6736C78.0476 35.6023 77.9719 35.5458 77.878 35.504C77.7858 35.4606 77.6754 35.4388 77.5467 35.4388C77.3746 35.4388 77.2294 35.4753 77.1112 35.5484C76.9929 35.6197 76.9338 35.7153 76.9338 35.8353C76.9338 35.9309 76.972 36.0118 77.0485 36.0779C77.1251 36.144 77.2563 36.197 77.4424 36.237L78.1675 36.3831C78.5571 36.463 78.8475 36.5917 79.0387 36.7691C79.23 36.9465 79.3257 37.1795 79.3257 37.4681C79.3257 37.7307 79.2483 37.9611 79.0935 38.1593C78.9405 38.3576 78.7301 38.5123 78.4623 38.6236C78.1962 38.7332 77.8893 38.788 77.5415 38.788C77.0112 38.788 76.5886 38.6775 76.2739 38.4567C75.9609 38.2341 75.7774 37.9316 75.7235 37.549L76.8164 37.4916C76.8494 37.6533 76.9294 37.7768 77.0564 37.862C77.1833 37.9455 77.3459 37.9872 77.5441 37.9872C77.7389 37.9872 77.8954 37.9498 78.0136 37.875C78.1336 37.7985 78.1945 37.7003 78.1962 37.5803C78.1945 37.4794 78.1519 37.3968 78.0684 37.3325C77.985 37.2664 77.8563 37.216 77.6824 37.1812L76.9886 37.043C76.5973 36.9647 76.306 36.8291 76.1148 36.6361C75.9252 36.443 75.8304 36.197 75.8304 35.8979C75.8304 35.6405 75.9 35.4188 76.0391 35.2328C76.18 35.0467 76.3773 34.9032 76.6312 34.8024C76.8868 34.7015 77.1859 34.6511 77.5285 34.6511C78.0345 34.6511 78.4327 34.758 78.7231 34.9719C79.0153 35.1858 79.1857 35.4771 79.2344 35.8457Z" fill="black"/>
<path d="M83.2017 38.7749C82.8974 38.7749 82.6218 38.6967 82.3748 38.5402C82.1296 38.3819 81.9349 38.1498 81.7906 37.8437C81.648 37.5359 81.5767 37.1586 81.5767 36.7117C81.5767 36.2526 81.6506 35.8709 81.7984 35.5666C81.9462 35.2606 82.1427 35.0319 82.3879 34.8806C82.6348 34.7276 82.9052 34.6511 83.1991 34.6511C83.4234 34.6511 83.6103 34.6894 83.7599 34.7659C83.9112 34.8406 84.0329 34.9345 84.125 35.0476C84.2189 35.1589 84.2902 35.2684 84.3389 35.3762H84.3728V33.3678H85.4814V38.7097H84.3859V38.0681H84.3389C84.2868 38.1793 84.2129 38.2898 84.1172 38.3993C84.0233 38.5071 83.9007 38.5967 83.7494 38.668C83.5999 38.7393 83.4173 38.7749 83.2017 38.7749ZM83.5538 37.8907C83.7329 37.8907 83.8842 37.842 84.0077 37.7446C84.1329 37.6455 84.2285 37.5073 84.2946 37.3299C84.3624 37.1525 84.3963 36.9447 84.3963 36.7065C84.3963 36.4683 84.3633 36.2613 84.2972 36.0857C84.2311 35.9101 84.1355 35.7744 84.0103 35.6788C83.8851 35.5832 83.7329 35.5353 83.5538 35.5353C83.3712 35.5353 83.2173 35.5849 83.0921 35.684C82.9669 35.7831 82.8722 35.9205 82.8078 36.0961C82.7435 36.2718 82.7113 36.4752 82.7113 36.7065C82.7113 36.9395 82.7435 37.1456 82.8078 37.3247C82.8739 37.502 82.9687 37.6412 83.0921 37.742C83.2173 37.8411 83.3712 37.8907 83.5538 37.8907Z" fill="black"/>
<path d="M88.2208 38.788C87.8087 38.788 87.454 38.7045 87.1566 38.5376C86.861 38.3689 86.6332 38.1307 86.4732 37.8229C86.3132 37.5133 86.2333 37.1473 86.2333 36.7247C86.2333 36.3126 86.3132 35.9509 86.4732 35.6397C86.6332 35.3284 86.8584 35.0858 87.1488 34.9119C87.4409 34.738 87.7835 34.6511 88.1765 34.6511C88.4408 34.6511 88.6869 34.6937 88.9147 34.7789C89.1442 34.8624 89.3442 34.9884 89.5146 35.1571C89.6867 35.3258 89.8206 35.5379 89.9163 35.7936C90.0119 36.0474 90.0597 36.3448 90.0597 36.6856V36.9908H86.6767V36.3022H89.0138C89.0138 36.1422 88.979 36.0005 88.9094 35.877C88.8399 35.7536 88.7434 35.6571 88.6199 35.5875C88.4982 35.5162 88.3565 35.4806 88.1947 35.4806C88.0261 35.4806 87.8765 35.5197 87.7461 35.5979C87.6174 35.6744 87.5166 35.7779 87.4435 35.9083C87.3705 36.037 87.3331 36.1805 87.3314 36.3387V36.9934C87.3314 37.1916 87.3679 37.3629 87.4409 37.5073C87.5157 37.6516 87.6209 37.7629 87.7565 37.8411C87.8922 37.9194 88.053 37.9585 88.2391 37.9585C88.3626 37.9585 88.4756 37.9411 88.5782 37.9063C88.6808 37.8716 88.7686 37.8194 88.8416 37.7498C88.9147 37.6803 88.9703 37.5951 89.0086 37.4942L90.0363 37.562C89.9841 37.809 89.8771 38.0246 89.7154 38.2089C89.5555 38.3915 89.3485 38.5341 89.0946 38.6367C88.8425 38.7375 88.5512 38.788 88.2208 38.788Z" fill="black"/>
<path d="M91.896 33.3678V38.7097H90.7849V33.3678H91.896Z" fill="black"/>
<path d="M95.4721 33.3678L96.7632 37.4264H96.8128L98.1066 33.3678H99.3586L97.5171 38.7097H96.0616L94.2175 33.3678H95.4721Z" fill="black"/>
<path d="M100.678 38.7854C100.423 38.7854 100.195 38.741 99.995 38.6523C99.795 38.5619 99.6368 38.4289 99.5203 38.2533C99.4055 38.0759 99.3481 37.855 99.3481 37.5907C99.3481 37.3681 99.389 37.1812 99.4707 37.0299C99.5525 36.8786 99.6637 36.7569 99.8046 36.6648C99.9454 36.5726 100.105 36.503 100.285 36.4561C100.465 36.4091 100.655 36.3761 100.853 36.357C101.086 36.3326 101.274 36.31 101.417 36.2892C101.559 36.2665 101.663 36.2335 101.727 36.19C101.791 36.1466 101.823 36.0822 101.823 35.997V35.9814C101.823 35.8162 101.771 35.6884 101.667 35.5979C101.564 35.5075 101.418 35.4623 101.229 35.4623C101.029 35.4623 100.87 35.5066 100.751 35.5953C100.633 35.6823 100.555 35.7918 100.517 35.924L99.489 35.8405C99.5411 35.5971 99.6437 35.3867 99.7968 35.2093C99.9498 35.0302 100.147 34.8928 100.389 34.7972C100.632 34.6998 100.914 34.6511 101.234 34.6511C101.457 34.6511 101.67 34.6772 101.873 34.7293C102.078 34.7815 102.26 34.8624 102.418 34.9719C102.578 35.0815 102.704 35.2223 102.796 35.3945C102.889 35.5649 102.935 35.7692 102.935 36.0074V38.7097H101.881V38.1541H101.85C101.785 38.2793 101.699 38.3898 101.591 38.4854C101.484 38.5793 101.354 38.6532 101.203 38.7071C101.051 38.7593 100.877 38.7854 100.678 38.7854ZM100.997 38.0185C101.16 38.0185 101.304 37.9863 101.43 37.922C101.555 37.8559 101.653 37.7672 101.724 37.6559C101.796 37.5446 101.831 37.4186 101.831 37.2777V36.8526C101.797 36.8752 101.749 36.896 101.688 36.9152C101.629 36.9325 101.562 36.9491 101.487 36.9647C101.412 36.9786 101.337 36.9917 101.263 37.0038C101.188 37.0143 101.12 37.0238 101.059 37.0325C100.929 37.0517 100.815 37.0821 100.718 37.1238C100.62 37.1656 100.545 37.2221 100.491 37.2934C100.437 37.3629 100.41 37.4499 100.41 37.5542C100.41 37.7055 100.465 37.8211 100.574 37.9011C100.685 37.9794 100.826 38.0185 100.997 38.0185Z" fill="black"/>
<path d="M104.908 33.3678V38.7097H103.797V33.3678H104.908Z" fill="black"/>
<path d="M106.909 33.3678V38.7097H105.798V33.3678H106.909Z" fill="black"/>
<path d="M109.625 38.788C109.213 38.788 108.858 38.7045 108.561 38.5376C108.265 38.3689 108.037 38.1307 107.877 37.8229C107.718 37.5133 107.638 37.1473 107.638 36.7247C107.638 36.3126 107.718 35.9509 107.877 35.6397C108.037 35.3284 108.263 35.0858 108.553 34.9119C108.845 34.738 109.188 34.6511 109.581 34.6511C109.845 34.6511 110.091 34.6937 110.319 34.7789C110.548 34.8624 110.748 34.9884 110.919 35.1571C111.091 35.3258 111.225 35.5379 111.321 35.7936C111.416 36.0474 111.464 36.3448 111.464 36.6856V36.9908H108.081V36.3022H110.418C110.418 36.1422 110.383 36.0005 110.314 35.877C110.244 35.7536 110.148 35.6571 110.024 35.5875C109.902 35.5162 109.761 35.4806 109.599 35.4806C109.43 35.4806 109.281 35.5197 109.15 35.5979C109.022 35.6744 108.921 35.7779 108.848 35.9083C108.775 36.037 108.737 36.1805 108.736 36.3387V36.9934C108.736 37.1916 108.772 37.3629 108.845 37.5073C108.92 37.6516 109.025 37.7629 109.161 37.8411C109.296 37.9194 109.457 37.9585 109.643 37.9585C109.767 37.9585 109.88 37.9411 109.982 37.9063C110.085 37.8716 110.173 37.8194 110.246 37.7498C110.319 37.6803 110.375 37.5951 110.413 37.4942L111.441 37.562C111.388 37.809 111.281 38.0246 111.12 38.2089C110.96 38.3915 110.753 38.5341 110.499 38.6367C110.247 38.7375 109.955 38.788 109.625 38.788Z" fill="black"/>
<path d="M115.365 38.7749C115.061 38.7749 114.786 38.6967 114.539 38.5402C114.293 38.3819 114.099 38.1498 113.954 37.8437C113.812 37.5359 113.74 37.1586 113.74 36.7117C113.74 36.2526 113.814 35.8709 113.962 35.5666C114.11 35.2606 114.306 35.0319 114.552 34.8806C114.799 34.7276 115.069 34.6511 115.363 34.6511C115.587 34.6511 115.774 34.6894 115.924 34.7659C116.075 34.8406 116.197 34.9345 116.289 35.0476C116.383 35.1589 116.454 35.2684 116.503 35.3762H116.537V33.3678H117.645V38.7097H116.55V38.0681H116.503C116.451 38.1793 116.377 38.2898 116.281 38.3993C116.187 38.5071 116.064 38.5967 115.913 38.668C115.764 38.7393 115.581 38.7749 115.365 38.7749ZM115.718 37.8907C115.897 37.8907 116.048 37.842 116.171 37.7446C116.297 37.6455 116.392 37.5073 116.458 37.3299C116.526 37.1525 116.56 36.9447 116.56 36.7065C116.56 36.4683 116.527 36.2613 116.461 36.0857C116.395 35.9101 116.299 35.7744 116.174 35.6788C116.049 35.5832 115.897 35.5353 115.718 35.5353C115.535 35.5353 115.381 35.5849 115.256 35.684C115.131 35.7831 115.036 35.9205 114.972 36.0961C114.907 36.2718 114.875 36.4752 114.875 36.7065C114.875 36.9395 114.907 37.1456 114.972 37.3247C115.038 37.502 115.132 37.6412 115.256 37.742C115.381 37.8411 115.535 37.8907 115.718 37.8907Z" fill="black"/>
<path d="M120.385 38.788C119.972 38.788 119.618 38.7045 119.32 38.5376C119.025 38.3689 118.797 38.1307 118.637 37.8229C118.477 37.5133 118.397 37.1473 118.397 36.7247C118.397 36.3126 118.477 35.9509 118.637 35.6397C118.797 35.3284 119.022 35.0858 119.313 34.9119C119.605 34.738 119.947 34.6511 120.34 34.6511C120.605 34.6511 120.851 34.6937 121.078 34.7789C121.308 34.8624 121.508 34.9884 121.678 35.1571C121.851 35.3258 121.984 35.5379 122.08 35.7936C122.176 36.0474 122.224 36.3448 122.224 36.6856V36.9908H118.84V36.3022H121.178C121.178 36.1422 121.143 36.0005 121.073 35.877C121.004 35.7536 120.907 35.6571 120.784 35.5875C120.662 35.5162 120.52 35.4806 120.359 35.4806C120.19 35.4806 120.04 35.5197 119.91 35.5979C119.781 35.6744 119.68 35.7779 119.607 35.9083C119.534 36.037 119.497 36.1805 119.495 36.3387V36.9934C119.495 37.1916 119.532 37.3629 119.605 37.5073C119.679 37.6516 119.785 37.7629 119.92 37.8411C120.056 37.9194 120.217 37.9585 120.403 37.9585C120.526 37.9585 120.639 37.9411 120.742 37.9063C120.845 37.8716 120.932 37.8194 121.005 37.7498C121.078 37.6803 121.134 37.5951 121.172 37.4942L122.2 37.562C122.148 37.809 122.041 38.0246 121.879 38.2089C121.719 38.3915 121.512 38.5341 121.258 38.6367C121.006 38.7375 120.715 38.788 120.385 38.788Z" fill="black"/>
<path d="M124.67 33.3678H126.062L127.533 36.9569H127.596L129.067 33.3678H130.46V38.7097H129.365V35.2328H129.32L127.938 38.6836H127.192L125.809 35.2197H125.765V38.7097H124.67V33.3678Z" fill="black"/>
<path d="M133.196 38.788C132.783 38.788 132.429 38.7045 132.131 38.5376C131.836 38.3689 131.608 38.1307 131.448 37.8229C131.288 37.5133 131.208 37.1473 131.208 36.7247C131.208 36.3126 131.288 35.9509 131.448 35.6397C131.608 35.3284 131.833 35.0858 132.124 34.9119C132.416 34.738 132.758 34.6511 133.151 34.6511C133.416 34.6511 133.662 34.6937 133.889 34.7789C134.119 34.8624 134.319 34.9884 134.489 35.1571C134.662 35.3258 134.795 35.5379 134.891 35.7936C134.987 36.0474 135.035 36.3448 135.035 36.6856V36.9908H131.651V36.3022H133.989C133.989 36.1422 133.954 36.0005 133.884 35.877C133.815 35.7536 133.718 35.6571 133.595 35.5875C133.473 35.5162 133.331 35.4806 133.17 35.4806C133.001 35.4806 132.851 35.5197 132.721 35.5979C132.592 35.6744 132.491 35.7779 132.418 35.9083C132.345 36.037 132.308 36.1805 132.306 36.3387V36.9934C132.306 37.1916 132.343 37.3629 132.416 37.5073C132.49 37.6516 132.596 37.7629 132.731 37.8411C132.867 37.9194 133.028 37.9585 133.214 37.9585C133.337 37.9585 133.45 37.9411 133.553 37.9063C133.656 37.8716 133.743 37.8194 133.816 37.7498C133.889 37.6803 133.945 37.5951 133.983 37.4942L135.011 37.562C134.959 37.809 134.852 38.0246 134.69 38.2089C134.53 38.3915 134.323 38.5341 134.069 38.6367C133.817 38.7375 133.526 38.788 133.196 38.788ZM132.726 34.1868L133.279 33H134.307L133.511 34.1868H132.726Z" fill="black"/>
<path d="M136.616 34.7033L137.352 36.104L138.106 34.7033H139.246L138.085 36.7065L139.277 38.7097H138.142L137.352 37.3247L136.575 38.7097H135.427L136.616 36.7065L135.469 34.7033H136.616Z" fill="black"/>
<path d="M139.906 38.7097V34.7033H141.017V38.7097H139.906ZM140.464 34.1868C140.299 34.1868 140.157 34.132 140.039 34.0225C139.922 33.9112 139.864 33.7782 139.864 33.6234C139.864 33.4704 139.922 33.3391 140.039 33.2295C140.157 33.1182 140.299 33.0626 140.464 33.0626C140.629 33.0626 140.77 33.1182 140.886 33.2295C141.005 33.3391 141.064 33.4704 141.064 33.6234C141.064 33.7782 141.005 33.9112 140.886 34.0225C140.77 34.132 140.629 34.1868 140.464 34.1868Z" fill="black"/>
<path d="M143.717 38.788C143.307 38.788 142.954 38.701 142.658 38.5271C142.364 38.3515 142.138 38.1081 141.98 37.7968C141.823 37.4855 141.745 37.1273 141.745 36.7221C141.745 36.3118 141.824 35.9518 141.983 35.6423C142.143 35.331 142.369 35.0884 142.663 34.9145C142.957 34.7389 143.307 34.6511 143.712 34.6511C144.061 34.6511 144.367 34.7146 144.63 34.8415C144.893 34.9684 145.1 35.1467 145.253 35.3762C145.406 35.6058 145.491 35.8753 145.506 36.1848H144.458C144.428 35.9848 144.35 35.824 144.223 35.7023C144.098 35.5788 143.934 35.5171 143.73 35.5171C143.558 35.5171 143.408 35.564 143.279 35.6579C143.152 35.7501 143.053 35.8849 142.982 36.0622C142.91 36.2396 142.875 36.4543 142.875 36.7065C142.875 36.9621 142.909 37.1795 142.979 37.3586C143.05 37.5377 143.15 37.6742 143.279 37.7681C143.408 37.862 143.558 37.9089 143.73 37.9089C143.857 37.9089 143.971 37.8829 144.072 37.8307C144.174 37.7785 144.259 37.7029 144.325 37.6038C144.393 37.5029 144.437 37.3821 144.458 37.2412H145.506C145.489 37.5473 145.406 37.8168 145.256 38.0498C145.108 38.2811 144.904 38.4619 144.643 38.5923C144.382 38.7228 144.074 38.788 143.717 38.788Z" fill="black"/>
<path d="M148.028 38.788C147.623 38.788 147.273 38.7019 146.977 38.5297C146.683 38.3558 146.456 38.1141 146.296 37.8046C146.136 37.4933 146.056 37.1325 146.056 36.7221C146.056 36.3083 146.136 35.9466 146.296 35.6371C146.456 35.3258 146.683 35.0841 146.977 34.9119C147.273 34.738 147.623 34.6511 148.028 34.6511C148.433 34.6511 148.783 34.738 149.077 34.9119C149.372 35.0841 149.6 35.3258 149.76 35.6371C149.92 35.9466 150 36.3083 150 36.7221C150 37.1325 149.92 37.4933 149.76 37.8046C149.6 38.1141 149.372 38.3558 149.077 38.5297C148.783 38.7019 148.433 38.788 148.028 38.788ZM148.033 37.9272C148.218 37.9272 148.372 37.875 148.495 37.7707C148.618 37.6646 148.711 37.5203 148.774 37.3377C148.838 37.1551 148.871 36.9473 148.871 36.7143C148.871 36.4813 148.838 36.2735 148.774 36.0909C148.711 35.9083 148.618 35.764 148.495 35.6579C148.372 35.5519 148.218 35.4988 148.033 35.4988C147.847 35.4988 147.691 35.5519 147.564 35.6579C147.439 35.764 147.344 35.9083 147.279 36.0909C147.217 36.2735 147.186 36.4813 147.186 36.7143C147.186 36.9473 147.217 37.1551 147.279 37.3377C147.344 37.5203 147.439 37.6646 147.564 37.7707C147.691 37.875 147.847 37.9272 148.033 37.9272Z" fill="black"/>
<path d="M42.3922 44.0522H41.2497C41.2288 43.9044 41.1862 43.7731 41.1219 43.6583C41.0575 43.5418 40.9749 43.4427 40.8741 43.361C40.7732 43.2792 40.6567 43.2166 40.5246 43.1732C40.3941 43.1297 40.2524 43.1079 40.0994 43.1079C39.8229 43.1079 39.5821 43.1766 39.3769 43.314C39.1717 43.4496 39.0126 43.6479 38.8996 43.9087C38.7865 44.1678 38.73 44.4826 38.73 44.8529C38.73 45.2338 38.7865 45.5537 38.8996 45.8128C39.0143 46.0719 39.1743 46.2675 39.3795 46.3997C39.5847 46.5319 39.822 46.5979 40.0916 46.5979C40.2429 46.5979 40.3828 46.5779 40.5115 46.5379C40.6419 46.498 40.7576 46.4397 40.8584 46.3632C40.9593 46.2849 41.0428 46.1902 41.1088 46.0789C41.1767 45.9676 41.2236 45.8406 41.2497 45.6981L42.3922 45.7033C42.3626 45.9485 42.2887 46.1849 42.1704 46.4127C42.0539 46.6388 41.8966 46.8414 41.6983 47.0205C41.5018 47.1979 41.2671 47.3387 40.9941 47.443C40.7228 47.5456 40.4159 47.5969 40.0733 47.5969C39.5969 47.5969 39.1708 47.4891 38.7952 47.2735C38.4214 47.0579 38.1257 46.7457 37.9084 46.3371C37.6927 45.9285 37.5849 45.4337 37.5849 44.8529C37.5849 44.2704 37.6945 43.7748 37.9136 43.3662C38.1327 42.9575 38.43 42.6463 38.8057 42.4324C39.1813 42.2168 39.6038 42.1089 40.0733 42.1089C40.3828 42.1089 40.6698 42.1524 40.9341 42.2394C41.2001 42.3263 41.4358 42.4532 41.6409 42.6202C41.8461 42.7854 42.0131 42.988 42.1418 43.2279C42.2722 43.4679 42.3556 43.7426 42.3922 44.0522Z" fill="black"/>
<path d="M44.2924 42.182V47.5239H43.1812V42.182H44.2924Z" fill="black"/>
<path d="M46.3249 47.5996C46.0693 47.5996 45.8415 47.5552 45.6415 47.4665C45.4416 47.3761 45.2833 47.2431 45.1668 47.0674C45.052 46.8901 44.9947 46.6692 44.9947 46.4049C44.9947 46.1823 45.0355 45.9954 45.1172 45.8441C45.199 45.6928 45.3103 45.5711 45.4511 45.4789C45.592 45.3868 45.7519 45.3172 45.9311 45.2703C46.1119 45.2233 46.3014 45.1903 46.4997 45.1712C46.7327 45.1468 46.9205 45.1242 47.0631 45.1033C47.2057 45.0807 47.3091 45.0477 47.3735 45.0042C47.4378 44.9608 47.47 44.8964 47.47 44.8112V44.7956C47.47 44.6304 47.4178 44.5026 47.3135 44.4121C47.2109 44.3217 47.0648 44.2765 46.8753 44.2765C46.6753 44.2765 46.5162 44.3208 46.398 44.4095C46.2797 44.4965 46.2015 44.606 46.1632 44.7382L45.1355 44.6547C45.1877 44.4113 45.2903 44.2008 45.4433 44.0235C45.5963 43.8444 45.7937 43.707 46.0354 43.6114C46.2788 43.514 46.5605 43.4653 46.8805 43.4653C47.1031 43.4653 47.3161 43.4914 47.5196 43.5435C47.7247 43.5957 47.9065 43.6766 48.0647 43.7861C48.2247 43.8957 48.3508 44.0365 48.4429 44.2087C48.5351 44.3791 48.5812 44.5834 48.5812 44.8216V47.5239H47.5274V46.9683H47.4961C47.4317 47.0935 47.3457 47.2039 47.2379 47.2996C47.13 47.3935 47.0005 47.4674 46.8492 47.5213C46.6979 47.5735 46.5232 47.5996 46.3249 47.5996ZM46.6431 46.8327C46.8066 46.8327 46.9509 46.8005 47.0761 46.7362C47.2013 46.6701 47.2996 46.5814 47.3709 46.4701C47.4422 46.3588 47.4778 46.2328 47.4778 46.0919V45.6668C47.443 45.6894 47.3952 45.7102 47.3344 45.7294C47.2752 45.7467 47.2083 45.7633 47.1335 45.7789C47.0587 45.7928 46.984 45.8059 46.9092 45.818C46.8344 45.8285 46.7666 45.838 46.7057 45.8467C46.5753 45.8659 46.4614 45.8963 46.364 45.938C46.2667 45.9798 46.191 46.0363 46.1371 46.1076C46.0832 46.1771 46.0563 46.2641 46.0563 46.3684C46.0563 46.5197 46.111 46.6353 46.2206 46.7153C46.3319 46.7936 46.4727 46.8327 46.6431 46.8327Z" fill="black"/>
<path d="M53.0349 43.5175L51.6343 47.5239H50.3822L48.9815 43.5175H50.1553L50.9874 46.3841H51.0291L51.8586 43.5175H53.0349Z" fill="black"/>
<path d="M55.3003 47.6022C54.8882 47.6022 54.5335 47.5187 54.2361 47.3518C53.9405 47.1831 53.7127 46.9449 53.5527 46.6371C53.3927 46.3275 53.3127 45.9615 53.3127 45.5389C53.3127 45.1268 53.3927 44.7651 53.5527 44.4539C53.7127 44.1426 53.9379 43.9 54.2283 43.7261C54.5204 43.5522 54.863 43.4653 55.256 43.4653C55.5203 43.4653 55.7663 43.5079 55.9941 43.5931C56.2237 43.6766 56.4236 43.8026 56.5941 43.9713C56.7662 44.14 56.9001 44.3521 56.9958 44.6078C57.0914 44.8616 57.1392 45.159 57.1392 45.4998V45.805H53.7562V45.1164H56.0933C56.0933 44.9564 56.0585 44.8147 55.9889 44.6912C55.9194 44.5678 55.8229 44.4712 55.6994 44.4017C55.5777 44.3304 55.4359 44.2948 55.2742 44.2948C55.1056 44.2948 54.956 44.3339 54.8256 44.4121C54.6969 44.4886 54.5961 44.5921 54.523 44.7225C54.45 44.8512 54.4126 44.9947 54.4109 45.1529V45.8076C54.4109 46.0058 54.4474 46.1771 54.5204 46.3215C54.5952 46.4658 54.7004 46.5771 54.836 46.6553C54.9717 46.7336 55.1325 46.7727 55.3186 46.7727C55.442 46.7727 55.5551 46.7553 55.6577 46.7205C55.7603 46.6858 55.8481 46.6336 55.9211 46.564C55.9941 46.4945 56.0498 46.4093 56.088 46.3084L57.1157 46.3762C57.0636 46.6232 56.9566 46.8388 56.7949 47.0231C56.6349 47.2057 56.428 47.3483 56.1741 47.4509C55.922 47.5517 55.6307 47.6022 55.3003 47.6022Z" fill="black"/>
<path d="M61.878 42.182V47.5239H60.7485V43.254H60.7172L59.4939 44.0209V43.0193L60.8164 42.182H61.878Z" fill="black"/>
<path d="M65.2421 47.6413C64.7935 47.6395 64.4074 47.5291 64.084 47.31C63.7623 47.0909 63.5145 46.7736 63.3406 46.358C63.1685 45.9424 63.0832 45.4424 63.085 44.8582C63.085 44.2756 63.1711 43.7792 63.3432 43.3688C63.5171 42.9584 63.7649 42.6463 64.0866 42.4324C64.41 42.2168 64.7952 42.1089 65.2421 42.1089C65.689 42.1089 66.0733 42.2168 66.395 42.4324C66.7184 42.648 66.9671 42.961 67.141 43.3714C67.3149 43.78 67.401 44.2756 67.3992 44.8582C67.3992 45.4442 67.3123 45.945 67.1384 46.3606C66.9662 46.7762 66.7193 47.0935 66.3976 47.3126C66.0759 47.5317 65.6907 47.6413 65.2421 47.6413ZM65.2421 46.7049C65.5481 46.7049 65.7925 46.551 65.9751 46.2432C66.1576 45.9354 66.2481 45.4737 66.2463 44.8582C66.2463 44.453 66.2046 44.1156 66.1211 43.8461C66.0394 43.5766 65.9229 43.374 65.7716 43.2384C65.622 43.1027 65.4456 43.0349 65.2421 43.0349C64.9378 43.0349 64.6944 43.1871 64.5118 43.4914C64.3292 43.7957 64.237 44.2513 64.2353 44.8582C64.2353 45.2685 64.2761 45.6111 64.3579 45.8859C64.4413 46.1589 64.5587 46.3641 64.71 46.5014C64.8613 46.6371 65.0387 46.7049 65.2421 46.7049Z" fill="black"/>
<path d="M69.2075 46.7936L69.1788 47.0805C69.1562 47.31 69.1127 47.5387 69.0484 47.7665C68.9858 47.996 68.9197 48.2038 68.8501 48.3899C68.7823 48.5759 68.7275 48.722 68.6858 48.8281H67.9659C67.992 48.7255 68.0276 48.582 68.0728 48.3977C68.118 48.2151 68.1606 48.0099 68.2006 47.7821C68.2406 47.5543 68.2659 47.3222 68.2763 47.0857L68.2893 46.7936H69.2075Z" fill="black"/>
<path d="M74.5911 43.7183C74.5703 43.5079 74.4807 43.3444 74.3225 43.2279C74.1642 43.1114 73.9495 43.0532 73.6782 43.0532C73.4939 43.0532 73.3383 43.0793 73.2113 43.1314C73.0844 43.1818 72.987 43.2523 72.9192 43.3427C72.8531 43.4331 72.8201 43.5357 72.8201 43.6505C72.8166 43.7461 72.8366 43.8296 72.8801 43.9009C72.9253 43.9722 72.987 44.0339 73.0652 44.0861C73.1435 44.1365 73.2339 44.1809 73.3365 44.2191C73.4391 44.2556 73.5487 44.2869 73.6652 44.313L74.1451 44.4278C74.3781 44.4799 74.592 44.5495 74.7868 44.6364C74.9815 44.7234 75.1502 44.8303 75.2928 44.9573C75.4354 45.0842 75.5458 45.2338 75.6241 45.4059C75.704 45.5781 75.7449 45.7754 75.7466 45.998C75.7449 46.3249 75.6614 46.6084 75.4962 46.8483C75.3328 47.0866 75.0963 47.2718 74.7868 47.4039C74.479 47.5343 74.1077 47.5996 73.673 47.5996C73.2417 47.5996 72.8661 47.5335 72.5462 47.4013C72.228 47.2692 71.9793 47.0735 71.8002 46.8144C71.6228 46.5536 71.5298 46.231 71.5211 45.8467H72.614C72.6262 46.0258 72.6775 46.1754 72.7679 46.2954C72.8601 46.4136 72.9826 46.5032 73.1357 46.564C73.2904 46.6232 73.4652 46.6527 73.66 46.6527C73.8512 46.6527 74.0173 46.6249 74.1581 46.5692C74.3007 46.5136 74.4112 46.4362 74.4894 46.3371C74.5677 46.238 74.6068 46.1241 74.6068 45.9954C74.6068 45.8754 74.5711 45.7746 74.4998 45.6928C74.4303 45.6111 74.3277 45.5415 74.1921 45.4842C74.0582 45.4268 73.8938 45.3746 73.6991 45.3277L73.1174 45.1816C72.667 45.072 72.3114 44.9008 72.0506 44.6677C71.7898 44.4347 71.6602 44.1209 71.6619 43.7261C71.6602 43.4027 71.7463 43.1201 71.9202 42.8784C72.0958 42.6367 72.3366 42.448 72.6427 42.3124C72.9487 42.1768 73.2965 42.1089 73.686 42.1089C74.0825 42.1089 74.4286 42.1768 74.7242 42.3124C75.0215 42.448 75.2528 42.6367 75.418 42.8784C75.5832 43.1201 75.6684 43.4001 75.6736 43.7183H74.5911Z" fill="black"/>
<path d="M77.1349 47.5917C76.9628 47.5917 76.815 47.5309 76.6915 47.4091C76.5698 47.2857 76.5089 47.1379 76.5089 46.9657C76.5089 46.7953 76.5698 46.6492 76.6915 46.5275C76.815 46.4058 76.9628 46.3449 77.1349 46.3449C77.3019 46.3449 77.448 46.4058 77.5732 46.5275C77.6984 46.6492 77.761 46.7953 77.761 46.9657C77.761 47.0805 77.7314 47.1857 77.6723 47.2813C77.6149 47.3752 77.5392 47.4509 77.4454 47.5083C77.3514 47.5639 77.248 47.5917 77.1349 47.5917Z" fill="black"/>
<path d="M79.6149 47.5239H78.4046L80.2487 42.182H81.7042L83.5457 47.5239H82.3354L80.9973 43.4027H80.9556L79.6149 47.5239ZM79.5392 45.4242H82.398V46.3058H79.5392V45.4242Z" fill="black"/>
<path d="M84.8172 47.5917C84.6451 47.5917 84.4973 47.5309 84.3738 47.4091C84.2521 47.2857 84.1912 47.1379 84.1912 46.9657C84.1912 46.7953 84.2521 46.6492 84.3738 46.5275C84.4973 46.4058 84.6451 46.3449 84.8172 46.3449C84.9842 46.3449 85.1302 46.4058 85.2554 46.5275C85.3806 46.6492 85.4433 46.7953 85.4433 46.9657C85.4433 47.0805 85.4137 47.1857 85.3546 47.2813C85.2972 47.3752 85.2215 47.4509 85.1276 47.5083C85.0337 47.5639 84.9303 47.5917 84.8172 47.5917Z" fill="black"/>
<path d="M89.2808 47.5891C88.9765 47.5891 88.7009 47.5109 88.454 47.3544C88.2088 47.1961 88.014 46.964 87.8697 46.6579C87.7271 46.3501 87.6558 45.9728 87.6558 45.5259C87.6558 45.0668 87.7297 44.6851 87.8775 44.3808C88.0253 44.0748 88.2218 43.8461 88.467 43.6948C88.7139 43.5418 88.9843 43.4653 89.2782 43.4653C89.5025 43.4653 89.6895 43.5035 89.839 43.5801C89.9903 43.6548 90.112 43.7487 90.2042 43.8618C90.2981 43.9731 90.3694 44.0826 90.4181 44.1904H90.452V42.182H91.5605V47.5239H90.465V46.8822H90.4181C90.3659 46.9935 90.292 47.104 90.1964 47.2135C90.1024 47.3213 89.9799 47.4109 89.8286 47.4822C89.679 47.5535 89.4964 47.5891 89.2808 47.5891ZM89.6329 46.7049C89.812 46.7049 89.9633 46.6562 90.0868 46.5588C90.212 46.4597 90.3076 46.3215 90.3737 46.1441C90.4415 45.9667 90.4754 45.7589 90.4754 45.5207C90.4754 45.2825 90.4424 45.0755 90.3763 44.8999C90.3102 44.7243 90.2146 44.5886 90.0894 44.493C89.9642 44.3973 89.812 44.3495 89.6329 44.3495C89.4504 44.3495 89.2965 44.3991 89.1713 44.4982C89.0461 44.5973 88.9513 44.7347 88.8869 44.9103C88.8226 45.086 88.7904 45.2894 88.7904 45.5207C88.7904 45.7537 88.8226 45.9598 88.8869 46.1389C88.953 46.3162 89.0478 46.4553 89.1713 46.5562C89.2965 46.6553 89.4504 46.7049 89.6329 46.7049Z" fill="black"/>
<path d="M94.3 47.6022C93.8878 47.6022 93.5331 47.5187 93.2357 47.3518C92.9401 47.1831 92.7123 46.9449 92.5524 46.6371C92.3924 46.3275 92.3124 45.9615 92.3124 45.5389C92.3124 45.1268 92.3924 44.7651 92.5524 44.4539C92.7123 44.1426 92.9375 43.9 93.2279 43.7261C93.5201 43.5522 93.8626 43.4653 94.2556 43.4653C94.5199 43.4653 94.766 43.5079 94.9938 43.5931C95.2233 43.6766 95.4233 43.8026 95.5937 43.9713C95.7659 44.14 95.8998 44.3521 95.9954 44.6078C96.091 44.8616 96.1389 45.159 96.1389 45.4998V45.805H92.7558V45.1164H95.0929C95.0929 44.9564 95.0581 44.8147 94.9886 44.6912C94.919 44.5678 94.8225 44.4712 94.699 44.4017C94.5773 44.3304 94.4356 44.2948 94.2739 44.2948C94.1052 44.2948 93.9557 44.3339 93.8252 44.4121C93.6966 44.4886 93.5957 44.5921 93.5227 44.7225C93.4496 44.8512 93.4122 44.9947 93.4105 45.1529V45.8076C93.4105 46.0058 93.447 46.1771 93.5201 46.3215C93.5948 46.4658 93.7 46.5771 93.8357 46.6553C93.9713 46.7336 94.1322 46.7727 94.3182 46.7727C94.4417 46.7727 94.5547 46.7553 94.6573 46.7205C94.7599 46.6858 94.8477 46.6336 94.9208 46.564C94.9938 46.4945 95.0494 46.4093 95.0877 46.3084L96.1154 46.3762C96.0632 46.6232 95.9563 46.8388 95.7946 47.0231C95.6346 47.2057 95.4276 47.3483 95.1738 47.4509C94.9216 47.5517 94.6304 47.6022 94.3 47.6022Z" fill="black"/>
<path d="M103.298 44.0522H102.156C102.135 43.9044 102.092 43.7731 102.028 43.6583C101.964 43.5418 101.881 43.4427 101.78 43.361C101.679 43.2792 101.563 43.2166 101.431 43.1732C101.3 43.1297 101.158 43.1079 101.005 43.1079C100.729 43.1079 100.488 43.1766 100.283 43.314C100.078 43.4496 99.9186 43.6479 99.8056 43.9087C99.6925 44.1678 99.636 44.4826 99.636 44.8529C99.636 45.2338 99.6925 45.5537 99.8056 45.8128C99.9203 46.0719 100.08 46.2675 100.286 46.3997C100.491 46.5319 100.728 46.5979 100.998 46.5979C101.149 46.5979 101.289 46.5779 101.418 46.5379C101.548 46.498 101.664 46.4397 101.764 46.3632C101.865 46.2849 101.949 46.1902 102.015 46.0789C102.083 45.9676 102.13 45.8406 102.156 45.6981L103.298 45.7033C103.269 45.9485 103.195 46.1849 103.076 46.4127C102.96 46.6388 102.803 46.8414 102.604 47.0205C102.408 47.1979 102.173 47.3387 101.9 47.443C101.629 47.5456 101.322 47.5969 100.979 47.5969C100.503 47.5969 100.077 47.4891 99.7012 47.2735C99.3274 47.0579 99.0318 46.7457 98.8144 46.3371C98.5988 45.9285 98.491 45.4337 98.491 44.8529C98.491 44.2704 98.6005 43.7748 98.8196 43.3662C99.0387 42.9575 99.3361 42.6463 99.7117 42.4324C100.087 42.2168 100.51 42.1089 100.979 42.1089C101.289 42.1089 101.576 42.1524 101.84 42.2394C102.106 42.3263 102.342 42.4532 102.547 42.6202C102.752 42.7854 102.919 42.988 103.048 43.2279C103.178 43.4679 103.262 43.7426 103.298 44.0522Z" fill="black"/>
<path d="M104.737 47.5917C104.565 47.5917 104.417 47.5309 104.293 47.4091C104.172 47.2857 104.111 47.1379 104.111 46.9657C104.111 46.7953 104.172 46.6492 104.293 46.5275C104.417 46.4058 104.565 46.3449 104.737 46.3449C104.904 46.3449 105.05 46.4058 105.175 46.5275C105.3 46.6492 105.363 46.7953 105.363 46.9657C105.363 47.0805 105.333 47.1857 105.274 47.2813C105.217 47.3752 105.141 47.4509 105.047 47.5083C104.953 47.5639 104.85 47.5917 104.737 47.5917Z" fill="black"/>
<path d="M107.261 42.182L108.552 46.2406H108.602L109.895 42.182H111.147L109.306 47.5239H107.85L106.006 42.182H107.261Z" fill="black"/>
<path d="M111.709 47.5917C111.537 47.5917 111.389 47.5309 111.265 47.4091C111.144 47.2857 111.083 47.1379 111.083 46.9657C111.083 46.7953 111.144 46.6492 111.265 46.5275C111.389 46.4058 111.537 46.3449 111.709 46.3449C111.876 46.3449 112.022 46.4058 112.147 46.5275C112.272 46.6492 112.335 46.7953 112.335 46.9657C112.335 47.0805 112.305 47.1857 112.246 47.2813C112.189 47.3752 112.113 47.4509 112.019 47.5083C111.925 47.5639 111.822 47.5917 111.709 47.5917Z" fill="black"/>
</svg>
