<svg width="350" height="350" viewBox="0 0 350 350" fill="none" xmlns="http://www.w3.org/2000/svg">
<g opacity="0.2">
<path d="M0 5.89998C0 2.6415 2.64152 0 5.9 0H344.1C347.358 0 350 2.64152 350 5.9V344.1C350 347.358 347.358 350 344.1 350H5.89998C2.6415 350 0 347.358 0 344.1V5.89998Z" fill="#FF6500"/>
<path d="M82.7344 240L80.625 248.281H64.8438L54.4531 290H35.3906L45.7813 248.281H30L32.1094 240H82.7344Z" fill="white"/>
<path d="M142.501 240L133.673 275.156C132.318 280.521 130.365 284.349 127.813 286.641C125.313 288.88 121.693 290 116.954 290H89.9225C83.1517 290 79.7663 286.927 79.7663 280.781C79.7663 279.115 80.0267 277.24 80.5475 275.156L89.3756 240H108.438L99.1413 277.187C98.985 277.812 98.9069 278.385 98.9069 278.906C98.9069 280.781 100.079 281.719 102.423 281.719H119.298C121.016 281.719 122.24 281.458 122.969 280.938C123.751 280.417 124.35 279.323 124.766 277.656L134.219 240H142.501Z" fill="white"/>
<path d="M208.519 240L176.723 290H155.394L149.691 240H170.004L174.379 279.375L199.379 240H208.519Z" fill="white"/>
<path d="M261.689 240L259.58 248.281H233.251C231.064 248.281 229.788 248.958 229.423 250.313L228.564 253.516C228.512 253.776 228.486 253.984 228.486 254.141C228.486 255.026 229.475 255.469 231.455 255.469H245.673C252.444 255.469 255.83 257.734 255.83 262.266C255.83 263.151 255.699 264.089 255.439 265.078L252.158 278.203C250.179 286.068 245.439 290 237.939 290H201.064L203.095 281.719H229.814C231.793 281.719 232.965 280.99 233.33 279.531L234.189 276.094C234.293 275.781 234.345 275.495 234.345 275.234C234.345 274.349 233.408 273.906 231.533 273.906H215.205C209.788 273.906 207.08 271.927 207.08 267.969C207.08 266.719 207.288 265.208 207.705 263.438L210.673 251.484C211.507 248.151 212.991 245.469 215.126 243.437C217.47 241.146 220.335 240 223.72 240H261.689Z" fill="white"/>
<path d="M318.587 290H298.352L296.008 276.563H274.055L264.133 290H254.915L291.321 240H310.383L318.587 290ZM294.758 268.281L291.868 251.406L279.993 268.281H294.758Z" fill="white"/>
<path fill-rule="evenodd" clip-rule="evenodd" d="M149.709 30C151.877 30 153.469 32.0379 152.943 34.1418L150.202 45.1054L150.363 44.9634C162.166 34.621 176.868 30 193.048 30H285.089C297.159 30 309.323 32.7092 318.515 41.0661C328.009 49.697 331.376 61.6179 331.376 73.5937C331.376 80.1162 330.403 86.9339 328.7 93.934L328.691 93.9722L311.3 164.026C307.181 180.594 299.968 194.87 288.454 205.009C276.698 215.362 262.049 220 245.923 220H153.881C141.759 220 129.555 217.305 120.322 208.98C116.716 205.729 113.985 202.006 111.982 197.985L107.109 217.475C106.738 218.959 105.405 220 103.876 220H16.6683C14.5005 220 12.9094 217.963 13.4341 215.86L38.5406 115.208C39.0652 113.104 37.4742 111.068 35.3063 111.068H21.5915C19.4257 111.068 17.8351 109.035 18.356 106.933L31.6391 53.3257L113.974 30.1249C114.268 30.042 114.572 30 114.878 30H149.709ZM33.736 203.333L60.9079 94.401H38.6319L45.486 66.7396L116.72 46.6667H132.632L93.4652 203.333H33.736ZM143.6 89.9948L126.219 160.005C124.751 166.043 124.016 171.51 124.016 176.406C124.016 194.358 133.971 203.333 153.881 203.333H245.923C271.544 203.333 287.945 188.891 295.126 160.005L312.506 89.9948C313.975 83.9566 314.709 78.4896 314.709 73.5937C314.709 55.6424 304.836 46.6667 285.089 46.6667H193.048C167.263 46.6667 150.78 61.1094 143.6 89.9948Z" fill="white"/>
<path d="M132.632 46.6667L93.4652 203.333H33.736L60.9079 94.401H38.6319L45.486 66.7396L116.72 46.6667H132.632Z" fill="#FF6500"/>
<path d="M312.506 89.9948L295.126 160.005C287.945 188.891 271.544 203.333 245.923 203.333H153.881C133.971 203.333 124.016 194.358 124.016 176.406C124.016 171.51 124.751 166.043 126.219 160.005L143.6 89.9948C150.78 61.1094 167.263 46.6667 193.048 46.6667H285.089C304.836 46.6667 314.709 55.6424 314.709 73.5937C314.709 78.4896 313.975 83.9566 312.506 89.9948ZM254.735 82.1615C255.061 80.8559 255.225 79.7135 255.225 78.7344C255.225 74.6545 252.124 72.6146 245.923 72.6146H218.996C211.489 72.6146 206.919 75.7969 205.287 82.1615L183.99 167.839C183.664 169.144 183.501 170.286 183.501 171.266C183.501 175.345 186.601 177.385 192.803 177.385H219.73C227.237 177.385 231.806 174.203 233.438 167.839L254.735 82.1615Z" fill="#FF6500"/>
<path d="M219.73 177.385C227.237 177.385 231.806 174.203 233.438 167.839L254.735 82.1615C255.061 80.8559 255.225 79.7135 255.225 78.7344C255.225 74.6545 252.124 72.6146 245.923 72.6146H218.996C211.489 72.6146 206.919 75.7969 205.287 82.1615L183.99 167.839C183.664 169.144 183.501 170.286 183.501 171.266C183.501 175.345 186.601 177.385 192.803 177.385H219.73Z" fill="white"/>
<path d="M13.3333 300H333.333V316.667H13.3333V300Z" fill="white"/>
</g>
</svg>
